<mxfile host="app.diagrams.net" agent="Mozilla/5.0 (Windows NT 10.0; Win64; x64) AppleWebKit/537.36 (KHTML, like Gecko) Chrome/132.0.0.0 YaBrowser/25.2.0.0 Safari/537.36" version="26.2.12">
  <diagram name="Page-1" id="uQS9ek2D7PSYEIglThoV">
    <mxGraphModel dx="1200" dy="1894" grid="1" gridSize="10" guides="1" tooltips="1" connect="1" arrows="1" fold="1" page="1" pageScale="1" pageWidth="827" pageHeight="1169" math="0" shadow="0">
      <root>
        <mxCell id="0" />
        <mxCell id="1" parent="0" />
        <mxCell id="yx6JDZAPdEywLPT-ssDb-65" value="&lt;font style=&quot;font-size: 10px;&quot;&gt;&amp;nbsp; &amp;nbsp;[указать жанр]&lt;/font&gt;" style="html=1;whiteSpace=wrap;align=left;" vertex="1" parent="1">
          <mxGeometry x="830" y="-720" width="740" height="50" as="geometry" />
        </mxCell>
        <mxCell id="yx6JDZAPdEywLPT-ssDb-15" value="&lt;font style=&quot;font-size: 10px;&quot;&gt;&amp;nbsp; &amp;nbsp; &amp;nbsp; [иначе]&lt;/font&gt;" style="html=1;whiteSpace=wrap;align=left;" vertex="1" parent="1">
          <mxGeometry x="830" y="-880" width="620" height="70" as="geometry" />
        </mxCell>
        <mxCell id="oFbbETFREsKXqKu5l48W-1" style="edgeStyle=none;rounded=0;orthogonalLoop=1;jettySize=auto;html=1;endArrow=blockThin;endFill=1;entryX=0;entryY=0;entryDx=0;entryDy=5;entryPerimeter=0;" parent="1" source="yx6JDZAPdEywLPT-ssDb-67" edge="1" target="yx6JDZAPdEywLPT-ssDb-68">
          <mxGeometry relative="1" as="geometry">
            <mxPoint x="1100" y="-975" as="targetPoint" />
            <Array as="points">
              <mxPoint x="1049" y="-975" />
            </Array>
            <mxPoint x="940" y="-980" as="sourcePoint" />
          </mxGeometry>
        </mxCell>
        <mxCell id="oFbbETFREsKXqKu5l48W-2" value="авторизация(логин, пароль)" style="edgeLabel;html=1;align=center;verticalAlign=middle;resizable=0;points=[];" parent="oFbbETFREsKXqKu5l48W-1" vertex="1" connectable="0">
          <mxGeometry x="0.0631" y="-3" relative="1" as="geometry">
            <mxPoint x="-7" y="-4" as="offset" />
          </mxGeometry>
        </mxCell>
        <mxCell id="oFbbETFREsKXqKu5l48W-3" value="&lt;span style=&quot;background-color: rgb(255, 255, 255);&quot;&gt;Пользователь&lt;/span&gt;" style="shape=umlLifeline;participant=umlActor;perimeter=lifelinePerimeter;whiteSpace=wrap;html=1;container=1;collapsible=0;recursiveResize=0;verticalAlign=top;spacingTop=36;outlineConnect=0;" parent="1" vertex="1">
          <mxGeometry x="910" y="-1060" width="20" height="1260" as="geometry" />
        </mxCell>
        <mxCell id="oFbbETFREsKXqKu5l48W-4" value=":ТВ-каналы" style="shape=umlLifeline;perimeter=lifelinePerimeter;whiteSpace=wrap;html=1;container=1;collapsible=0;recursiveResize=0;outlineConnect=0;" parent="1" vertex="1">
          <mxGeometry x="1499" y="-1060" width="100" height="1260" as="geometry" />
        </mxCell>
        <mxCell id="yx6JDZAPdEywLPT-ssDb-73" value="" style="html=1;points=[[0,0,0,0,5],[0,1,0,0,-5],[1,0,0,0,5],[1,1,0,0,-5]];perimeter=orthogonalPerimeter;outlineConnect=0;targetShapes=umlLifeline;portConstraint=eastwest;newEdgeStyle={&quot;curved&quot;:0,&quot;rounded&quot;:0};" vertex="1" parent="oFbbETFREsKXqKu5l48W-4">
          <mxGeometry x="45" y="508" width="10" height="80" as="geometry" />
        </mxCell>
        <mxCell id="oFbbETFREsKXqKu5l48W-5" style="edgeStyle=none;rounded=0;orthogonalLoop=1;jettySize=auto;html=1;endArrow=blockThin;endFill=1;" parent="1" source="oFbbETFREsKXqKu5l48W-7" edge="1">
          <mxGeometry relative="1" as="geometry">
            <mxPoint x="1334.9999999999998" y="-962" as="targetPoint" />
            <Array as="points">
              <mxPoint x="1289" y="-963" />
            </Array>
          </mxGeometry>
        </mxCell>
        <mxCell id="oFbbETFREsKXqKu5l48W-6" value="авторизация(логин, пароль)" style="edgeLabel;html=1;align=center;verticalAlign=middle;resizable=0;points=[];" parent="oFbbETFREsKXqKu5l48W-5" vertex="1" connectable="0">
          <mxGeometry x="0.0981" y="-1" relative="1" as="geometry">
            <mxPoint x="-8" y="-3" as="offset" />
          </mxGeometry>
        </mxCell>
        <mxCell id="oFbbETFREsKXqKu5l48W-7" value="Otium:UI&amp;nbsp;" style="shape=umlLifeline;perimeter=lifelinePerimeter;whiteSpace=wrap;html=1;container=1;collapsible=0;recursiveResize=0;outlineConnect=0;" parent="1" vertex="1">
          <mxGeometry x="1076" y="-1060" width="100" height="1260" as="geometry" />
        </mxCell>
        <mxCell id="yx6JDZAPdEywLPT-ssDb-6" style="edgeStyle=none;rounded=0;orthogonalLoop=1;jettySize=auto;html=1;endArrow=none;endFill=1;startArrow=open;startFill=0;dashed=1;" edge="1" parent="oFbbETFREsKXqKu5l48W-7">
          <mxGeometry relative="1" as="geometry">
            <mxPoint x="263.4999999999998" y="211" as="targetPoint" />
            <Array as="points">
              <mxPoint x="217.5" y="210" />
            </Array>
            <mxPoint x="54.5" y="210" as="sourcePoint" />
          </mxGeometry>
        </mxCell>
        <mxCell id="yx6JDZAPdEywLPT-ssDb-7" value="Пользователь не авторизирован" style="edgeLabel;html=1;align=center;verticalAlign=middle;resizable=0;points=[];" vertex="1" connectable="0" parent="yx6JDZAPdEywLPT-ssDb-6">
          <mxGeometry x="0.0981" y="-1" relative="1" as="geometry">
            <mxPoint x="-8" y="-3" as="offset" />
          </mxGeometry>
        </mxCell>
        <mxCell id="yx6JDZAPdEywLPT-ssDb-9" style="edgeStyle=none;rounded=0;orthogonalLoop=1;jettySize=auto;html=1;endArrow=none;endFill=1;startArrow=open;startFill=0;dashed=1;" edge="1" parent="oFbbETFREsKXqKu5l48W-7" source="yx6JDZAPdEywLPT-ssDb-67">
          <mxGeometry relative="1" as="geometry">
            <mxPoint x="50" y="230" as="targetPoint" />
            <Array as="points">
              <mxPoint x="7" y="230" />
            </Array>
            <mxPoint x="-136" y="230" as="sourcePoint" />
          </mxGeometry>
        </mxCell>
        <mxCell id="yx6JDZAPdEywLPT-ssDb-10" value="Пользователь не авторизирован" style="edgeLabel;html=1;align=center;verticalAlign=middle;resizable=0;points=[];" vertex="1" connectable="0" parent="yx6JDZAPdEywLPT-ssDb-9">
          <mxGeometry x="0.0981" y="-1" relative="1" as="geometry">
            <mxPoint x="-8" y="-3" as="offset" />
          </mxGeometry>
        </mxCell>
        <mxCell id="yx6JDZAPdEywLPT-ssDb-25" style="edgeStyle=none;rounded=0;orthogonalLoop=1;jettySize=auto;html=1;endArrow=blockThin;endFill=1;" edge="1" parent="oFbbETFREsKXqKu5l48W-7" target="yx6JDZAPdEywLPT-ssDb-72">
          <mxGeometry relative="1" as="geometry">
            <mxPoint x="34" y="500" as="targetPoint" />
            <Array as="points">
              <mxPoint x="-27" y="501" />
            </Array>
            <mxPoint x="-156" y="501" as="sourcePoint" />
          </mxGeometry>
        </mxCell>
        <mxCell id="yx6JDZAPdEywLPT-ssDb-26" value="Запросить подробную&amp;nbsp;&lt;div&gt;инфоромацию&lt;div&gt;&amp;nbsp;о ТВ-канале&lt;/div&gt;&lt;/div&gt;" style="edgeLabel;html=1;align=center;verticalAlign=middle;resizable=0;points=[];" vertex="1" connectable="0" parent="yx6JDZAPdEywLPT-ssDb-25">
          <mxGeometry x="0.0631" y="-3" relative="1" as="geometry">
            <mxPoint x="-7" y="-4" as="offset" />
          </mxGeometry>
        </mxCell>
        <mxCell id="yx6JDZAPdEywLPT-ssDb-41" style="edgeStyle=none;rounded=0;orthogonalLoop=1;jettySize=auto;html=1;endArrow=none;endFill=1;startArrow=open;startFill=0;dashed=1;" edge="1" parent="oFbbETFREsKXqKu5l48W-7" source="yx6JDZAPdEywLPT-ssDb-67">
          <mxGeometry relative="1" as="geometry">
            <mxPoint x="39.69" y="780" as="targetPoint" />
            <Array as="points" />
            <mxPoint x="-136" y="780" as="sourcePoint" />
          </mxGeometry>
        </mxCell>
        <mxCell id="yx6JDZAPdEywLPT-ssDb-42" value="Подтвердить добавление&amp;nbsp;&lt;div&gt;в избранное&lt;/div&gt;" style="edgeLabel;html=1;align=center;verticalAlign=middle;resizable=0;points=[];" vertex="1" connectable="0" parent="yx6JDZAPdEywLPT-ssDb-41">
          <mxGeometry x="0.0981" y="-1" relative="1" as="geometry">
            <mxPoint x="-8" y="-3" as="offset" />
          </mxGeometry>
        </mxCell>
        <mxCell id="yx6JDZAPdEywLPT-ssDb-47" style="edgeStyle=none;rounded=0;orthogonalLoop=1;jettySize=auto;html=1;endArrow=none;endFill=1;startArrow=open;startFill=0;dashed=1;" edge="1" parent="oFbbETFREsKXqKu5l48W-7" source="yx6JDZAPdEywLPT-ssDb-76">
          <mxGeometry relative="1" as="geometry">
            <mxPoint x="263.5" y="920" as="targetPoint" />
            <Array as="points" />
            <mxPoint x="74" y="920" as="sourcePoint" />
          </mxGeometry>
        </mxCell>
        <mxCell id="yx6JDZAPdEywLPT-ssDb-48" value="Показать список&lt;div&gt;&amp;nbsp;избранных ТВ-каналов&lt;/div&gt;" style="edgeLabel;html=1;align=center;verticalAlign=middle;resizable=0;points=[];" vertex="1" connectable="0" parent="yx6JDZAPdEywLPT-ssDb-47">
          <mxGeometry x="0.0981" y="-1" relative="1" as="geometry">
            <mxPoint x="-8" y="-3" as="offset" />
          </mxGeometry>
        </mxCell>
        <mxCell id="yx6JDZAPdEywLPT-ssDb-60" style="edgeStyle=none;rounded=0;orthogonalLoop=1;jettySize=auto;html=1;endArrow=blockThin;endFill=1;" edge="1" parent="oFbbETFREsKXqKu5l48W-7">
          <mxGeometry relative="1" as="geometry">
            <mxPoint x="50" y="363.34000000000003" as="targetPoint" />
            <Array as="points">
              <mxPoint x="-27" y="363" />
            </Array>
            <mxPoint x="-156" y="363" as="sourcePoint" />
          </mxGeometry>
        </mxCell>
        <mxCell id="yx6JDZAPdEywLPT-ssDb-61" value="Запрос на просмотр&amp;nbsp;&lt;div&gt;&lt;span style=&quot;background-color: light-dark(#ffffff, var(--ge-dark-color, #121212)); color: light-dark(rgb(0, 0, 0), rgb(255, 255, 255));&quot;&gt;списка ТВ-каналов&lt;/span&gt;&lt;div&gt;&lt;div&gt;(жанр)&lt;/div&gt;&lt;/div&gt;&lt;/div&gt;" style="edgeLabel;html=1;align=center;verticalAlign=middle;resizable=0;points=[];" vertex="1" connectable="0" parent="yx6JDZAPdEywLPT-ssDb-60">
          <mxGeometry x="0.0631" y="-3" relative="1" as="geometry">
            <mxPoint x="-7" y="-3" as="offset" />
          </mxGeometry>
        </mxCell>
        <mxCell id="yx6JDZAPdEywLPT-ssDb-62" style="edgeStyle=none;rounded=0;orthogonalLoop=1;jettySize=auto;html=1;endArrow=blockThin;endFill=1;" edge="1" parent="oFbbETFREsKXqKu5l48W-7" target="yx6JDZAPdEywLPT-ssDb-71">
          <mxGeometry relative="1" as="geometry">
            <mxPoint x="444" y="372" as="targetPoint" />
            <Array as="points">
              <mxPoint x="183" y="372.34000000000003" />
            </Array>
            <mxPoint x="50" y="372.34000000000003" as="sourcePoint" />
          </mxGeometry>
        </mxCell>
        <mxCell id="yx6JDZAPdEywLPT-ssDb-63" value="Запрос на просмотр списка ТВ-каналов&lt;div&gt;(жанр)&lt;/div&gt;" style="edgeLabel;html=1;align=center;verticalAlign=middle;resizable=0;points=[];" vertex="1" connectable="0" parent="yx6JDZAPdEywLPT-ssDb-62">
          <mxGeometry x="0.0631" y="-3" relative="1" as="geometry">
            <mxPoint x="-7" y="-4" as="offset" />
          </mxGeometry>
        </mxCell>
        <mxCell id="yx6JDZAPdEywLPT-ssDb-68" value="" style="html=1;points=[[0,0,0,0,5],[0,1,0,0,-5],[1,0,0,0,5],[1,1,0,0,-5]];perimeter=orthogonalPerimeter;outlineConnect=0;targetShapes=umlLifeline;portConstraint=eastwest;newEdgeStyle={&quot;curved&quot;:0,&quot;rounded&quot;:0};" vertex="1" parent="oFbbETFREsKXqKu5l48W-7">
          <mxGeometry x="45" y="80" width="10" height="160" as="geometry" />
        </mxCell>
        <mxCell id="yx6JDZAPdEywLPT-ssDb-72" value="" style="html=1;points=[[0,0,0,0,5],[0,1,0,0,-5],[1,0,0,0,5],[1,1,0,0,-5]];perimeter=orthogonalPerimeter;outlineConnect=0;targetShapes=umlLifeline;portConstraint=eastwest;newEdgeStyle={&quot;curved&quot;:0,&quot;rounded&quot;:0};" vertex="1" parent="oFbbETFREsKXqKu5l48W-7">
          <mxGeometry x="45" y="476" width="10" height="144" as="geometry" />
        </mxCell>
        <mxCell id="yx6JDZAPdEywLPT-ssDb-74" value="" style="html=1;points=[[0,0,0,0,5],[0,1,0,0,-5],[1,0,0,0,5],[1,1,0,0,-5]];perimeter=orthogonalPerimeter;outlineConnect=0;targetShapes=umlLifeline;portConstraint=eastwest;newEdgeStyle={&quot;curved&quot;:0,&quot;rounded&quot;:0};" vertex="1" parent="oFbbETFREsKXqKu5l48W-7">
          <mxGeometry x="45" y="670" width="10" height="130" as="geometry" />
        </mxCell>
        <mxCell id="yx6JDZAPdEywLPT-ssDb-76" value="" style="html=1;points=[[0,0,0,0,5],[0,1,0,0,-5],[1,0,0,0,5],[1,1,0,0,-5]];perimeter=orthogonalPerimeter;outlineConnect=0;targetShapes=umlLifeline;portConstraint=eastwest;newEdgeStyle={&quot;curved&quot;:0,&quot;rounded&quot;:0};" vertex="1" parent="oFbbETFREsKXqKu5l48W-7">
          <mxGeometry x="45" y="820" width="10" height="140" as="geometry" />
        </mxCell>
        <mxCell id="yx6JDZAPdEywLPT-ssDb-80" value="" style="html=1;points=[[0,0,0,0,5],[0,1,0,0,-5],[1,0,0,0,5],[1,1,0,0,-5]];perimeter=orthogonalPerimeter;outlineConnect=0;targetShapes=umlLifeline;portConstraint=eastwest;newEdgeStyle={&quot;curved&quot;:0,&quot;rounded&quot;:0};" vertex="1" parent="oFbbETFREsKXqKu5l48W-7">
          <mxGeometry x="45" y="990.34" width="10" height="189.66" as="geometry" />
        </mxCell>
        <mxCell id="oFbbETFREsKXqKu5l48W-8" value=":Пользователь&amp;nbsp;" style="shape=umlLifeline;perimeter=lifelinePerimeter;whiteSpace=wrap;html=1;container=1;collapsible=0;recursiveResize=0;outlineConnect=0;" parent="1" vertex="1">
          <mxGeometry x="1290" y="-1060" width="100" height="1260" as="geometry" />
        </mxCell>
        <mxCell id="yx6JDZAPdEywLPT-ssDb-2" style="edgeStyle=none;rounded=0;orthogonalLoop=1;jettySize=auto;html=1;endArrow=none;endFill=1;startArrow=open;startFill=0;dashed=1;" edge="1" parent="oFbbETFREsKXqKu5l48W-8">
          <mxGeometry relative="1" as="geometry">
            <mxPoint x="49.49999999999977" y="131" as="targetPoint" />
            <Array as="points">
              <mxPoint x="3.5" y="130" />
            </Array>
            <mxPoint x="-159.5" y="130" as="sourcePoint" />
          </mxGeometry>
        </mxCell>
        <mxCell id="yx6JDZAPdEywLPT-ssDb-3" value="Пользователь авторизирован" style="edgeLabel;html=1;align=center;verticalAlign=middle;resizable=0;points=[];" vertex="1" connectable="0" parent="yx6JDZAPdEywLPT-ssDb-2">
          <mxGeometry x="0.0981" y="-1" relative="1" as="geometry">
            <mxPoint x="-8" y="-3" as="offset" />
          </mxGeometry>
        </mxCell>
        <mxCell id="yx6JDZAPdEywLPT-ssDb-39" style="edgeStyle=none;rounded=0;orthogonalLoop=1;jettySize=auto;html=1;endArrow=none;endFill=1;startArrow=open;startFill=0;dashed=1;" edge="1" parent="oFbbETFREsKXqKu5l48W-8" source="yx6JDZAPdEywLPT-ssDb-74">
          <mxGeometry relative="1" as="geometry">
            <mxPoint x="51.83999999999992" y="760" as="targetPoint" />
            <Array as="points" />
            <mxPoint x="-150" y="760" as="sourcePoint" />
          </mxGeometry>
        </mxCell>
        <mxCell id="yx6JDZAPdEywLPT-ssDb-40" value="Подтвердить добавление&amp;nbsp;&lt;div&gt;в избранное&lt;/div&gt;" style="edgeLabel;html=1;align=center;verticalAlign=middle;resizable=0;points=[];" vertex="1" connectable="0" parent="yx6JDZAPdEywLPT-ssDb-39">
          <mxGeometry x="0.0981" y="-1" relative="1" as="geometry">
            <mxPoint x="-8" y="-3" as="offset" />
          </mxGeometry>
        </mxCell>
        <mxCell id="yx6JDZAPdEywLPT-ssDb-53" style="edgeStyle=none;rounded=0;orthogonalLoop=1;jettySize=auto;html=1;endArrow=blockThin;endFill=1;" edge="1" parent="oFbbETFREsKXqKu5l48W-8">
          <mxGeometry relative="1" as="geometry">
            <mxPoint x="46" y="1060.34" as="targetPoint" />
            <Array as="points">
              <mxPoint x="-34" y="1060" />
            </Array>
            <mxPoint x="-160" y="1060" as="sourcePoint" />
          </mxGeometry>
        </mxCell>
        <mxCell id="yx6JDZAPdEywLPT-ssDb-54" value="Удалить из списка&lt;div&gt;&amp;nbsp;избранных ТВ-каналов&lt;/div&gt;" style="edgeLabel;html=1;align=center;verticalAlign=middle;resizable=0;points=[];" vertex="1" connectable="0" parent="yx6JDZAPdEywLPT-ssDb-53">
          <mxGeometry x="0.0631" y="-3" relative="1" as="geometry">
            <mxPoint x="-7" y="-4" as="offset" />
          </mxGeometry>
        </mxCell>
        <mxCell id="yx6JDZAPdEywLPT-ssDb-55" style="edgeStyle=none;rounded=0;orthogonalLoop=1;jettySize=auto;html=1;endArrow=none;endFill=1;startArrow=open;startFill=0;dashed=1;" edge="1" parent="oFbbETFREsKXqKu5l48W-8" source="yx6JDZAPdEywLPT-ssDb-80">
          <mxGeometry relative="1" as="geometry">
            <mxPoint x="49.5" y="1109.9999999999998" as="targetPoint" />
            <Array as="points" />
            <mxPoint x="-150" y="1110" as="sourcePoint" />
          </mxGeometry>
        </mxCell>
        <mxCell id="yx6JDZAPdEywLPT-ssDb-56" value="Подтверждение удаления&amp;nbsp;&lt;div&gt;из списка&lt;div&gt;&amp;nbsp;избранных ТВ-каналов&lt;/div&gt;&lt;/div&gt;" style="edgeLabel;html=1;align=center;verticalAlign=middle;resizable=0;points=[];" vertex="1" connectable="0" parent="yx6JDZAPdEywLPT-ssDb-55">
          <mxGeometry x="0.0981" y="-1" relative="1" as="geometry">
            <mxPoint x="-8" y="-3" as="offset" />
          </mxGeometry>
        </mxCell>
        <mxCell id="yx6JDZAPdEywLPT-ssDb-69" value="" style="html=1;points=[[0,0,0,0,5],[0,1,0,0,-5],[1,0,0,0,5],[1,1,0,0,-5]];perimeter=orthogonalPerimeter;outlineConnect=0;targetShapes=umlLifeline;portConstraint=eastwest;newEdgeStyle={&quot;curved&quot;:0,&quot;rounded&quot;:0};" vertex="1" parent="oFbbETFREsKXqKu5l48W-8">
          <mxGeometry x="45" y="90" width="10" height="130" as="geometry" />
        </mxCell>
        <mxCell id="yx6JDZAPdEywLPT-ssDb-75" value="" style="html=1;points=[[0,0,0,0,5],[0,1,0,0,-5],[1,0,0,0,5],[1,1,0,0,-5]];perimeter=orthogonalPerimeter;outlineConnect=0;targetShapes=umlLifeline;portConstraint=eastwest;newEdgeStyle={&quot;curved&quot;:0,&quot;rounded&quot;:0};" vertex="1" parent="oFbbETFREsKXqKu5l48W-8">
          <mxGeometry x="45" y="690" width="10" height="90" as="geometry" />
        </mxCell>
        <mxCell id="yx6JDZAPdEywLPT-ssDb-81" value="" style="html=1;points=[[0,0,0,0,5],[0,1,0,0,-5],[1,0,0,0,5],[1,1,0,0,-5]];perimeter=orthogonalPerimeter;outlineConnect=0;targetShapes=umlLifeline;portConstraint=eastwest;newEdgeStyle={&quot;curved&quot;:0,&quot;rounded&quot;:0};" vertex="1" parent="oFbbETFREsKXqKu5l48W-8">
          <mxGeometry x="45" y="1020" width="10" height="120" as="geometry" />
        </mxCell>
        <mxCell id="oFbbETFREsKXqKu5l48W-9" value="&lt;h1 style=&quot;font-size: 30px;&quot;&gt;&lt;span style=&quot;font-size: 30px;&quot;&gt;Диаграмма&amp;nbsp;последовательности&lt;/span&gt;&lt;/h1&gt;" style="text;html=1;strokeColor=#FF8000;fillColor=#FFE6CC;spacing=5;spacingTop=-20;whiteSpace=wrap;overflow=hidden;rounded=0;fontSize=30;align=center;" parent="1" vertex="1">
          <mxGeometry x="880" y="-1150" width="710" height="60" as="geometry" />
        </mxCell>
        <mxCell id="oFbbETFREsKXqKu5l48W-11" value="&lt;h1&gt;&lt;font style=&quot;font-size: 40px;&quot;&gt;Задание&lt;/font&gt;&lt;/h1&gt;&lt;p style=&quot;font-size: 20px;&quot;&gt;&lt;font style=&quot;font-size: 20px;&quot;&gt;Составьте диаграмму последовательности в нотации.&lt;/font&gt;&lt;/p&gt;&lt;p style=&quot;font-size: 20px;&quot;&gt;&lt;font style=&quot;font-size: 20px;&quot;&gt;1. Проанализируйте существующее API, которое включает в себя следующий сценарий: авторизация пользователя для доступа к медиатеке, просмотр медиатеки фильмов и получении информации о нужном фильме и работе пользователя с избранными фильмами.&amp;nbsp;&lt;/font&gt;&lt;/p&gt;&lt;p style=&quot;font-size: 20px;&quot;&gt;&lt;font style=&quot;font-size: 20px;&quot;&gt;2. Вам необходимо построить диаграмму последовательностях для телеканалов по аналогии с сценарием взаимодействия пользователя с фильмами. Справа вы видите начало диаграммы, где уже выделен актор, объекты и обозначены несколько сообщений.&lt;/font&gt;&lt;/p&gt;&lt;p style=&quot;font-size: 20px;&quot;&gt;&lt;font style=&quot;font-size: 20px;&quot;&gt;3. Добавьте на диаграмму следующие действия, которые может выполнить пользователь:&amp;nbsp;&lt;/font&gt;&lt;/p&gt;&lt;ul style=&quot;font-size: 18px;&quot;&gt;&lt;li&gt;авторизоваться в системе&lt;/li&gt;&lt;li&gt;познакомиться с библиотекой телеканалов&lt;/li&gt;&lt;li&gt;прочитать подробную информацию о телеканале&lt;/li&gt;&lt;li&gt;добавить в избранное телеканал (это действие возможно выполнить только с детальной страницы).&lt;/li&gt;&lt;li&gt;посмотреть список избранных телеканалов&lt;/li&gt;&lt;li&gt;удалить телеканал из списка избранного&lt;/li&gt;&lt;/ul&gt;&lt;p style=&quot;font-size: 20px;&quot;&gt;&lt;font style=&quot;font-size: 20px;&quot;&gt;&amp;nbsp;Не забудьте отметить фокус управления.&lt;/font&gt;&lt;/p&gt;&lt;p style=&quot;font-size: 20px;&quot;&gt;&lt;font style=&quot;font-size: 20px;&quot;&gt;4.Если вам не хватает информации в задании, то вы можете ее самостоятельно добавить в виде допущения.&lt;/font&gt;&lt;/p&gt;&lt;p style=&quot;font-size: 20px;&quot;&gt;&lt;i&gt;&lt;font style=&quot;font-size: 20px;&quot;&gt;Помните, что вы всегда можете оставить дополнительную информацию со своими размышлениями ревьюеру в виде пометок. Просто возьмите одну из карточек ниже.&amp;nbsp;&lt;/font&gt;&lt;/i&gt;&lt;/p&gt;&lt;p style=&quot;font-size: 20px;&quot;&gt;&lt;font style=&quot;font-size: 20px;&quot;&gt;5. Когда диаграмма последовательности будет готова, сохраните полученный файл в формате .drawio.&lt;/font&gt;&lt;/p&gt;" style="text;html=1;strokeColor=#82b366;fillColor=#d5e8d4;spacing=5;spacingTop=-20;whiteSpace=wrap;overflow=hidden;rounded=0;fontSize=16;" parent="1" vertex="1">
          <mxGeometry x="70" y="-1130" width="600" height="910" as="geometry" />
        </mxCell>
        <mxCell id="yx6JDZAPdEywLPT-ssDb-4" style="edgeStyle=none;rounded=0;orthogonalLoop=1;jettySize=auto;html=1;endArrow=none;endFill=1;startArrow=open;startFill=0;dashed=1;" edge="1" parent="1" source="yx6JDZAPdEywLPT-ssDb-67" target="yx6JDZAPdEywLPT-ssDb-68">
          <mxGeometry relative="1" as="geometry">
            <mxPoint x="1110" y="-900" as="targetPoint" />
            <Array as="points">
              <mxPoint x="1083" y="-900" />
            </Array>
            <mxPoint x="940" y="-900" as="sourcePoint" />
          </mxGeometry>
        </mxCell>
        <mxCell id="yx6JDZAPdEywLPT-ssDb-5" value="Пользователь авторизирован" style="edgeLabel;html=1;align=center;verticalAlign=middle;resizable=0;points=[];" vertex="1" connectable="0" parent="yx6JDZAPdEywLPT-ssDb-4">
          <mxGeometry x="0.0981" y="-1" relative="1" as="geometry">
            <mxPoint x="-8" y="-3" as="offset" />
          </mxGeometry>
        </mxCell>
        <mxCell id="yx6JDZAPdEywLPT-ssDb-11" value="alt" style="shape=umlFrame;whiteSpace=wrap;html=1;pointerEvents=0;width=50;height=30;" vertex="1" parent="1">
          <mxGeometry x="830" y="-950" width="620" height="70" as="geometry" />
        </mxCell>
        <mxCell id="yx6JDZAPdEywLPT-ssDb-16" value="&lt;font style=&quot;font-size: 10px;&quot;&gt;[пользователь&lt;/font&gt;&lt;div&gt;&lt;font style=&quot;font-size: 10px;&quot;&gt;авторизован]&lt;/font&gt;&lt;/div&gt;" style="text;html=1;align=center;verticalAlign=middle;resizable=0;points=[];autosize=1;strokeColor=none;fillColor=none;" vertex="1" parent="1">
          <mxGeometry x="827" y="-920" width="90" height="40" as="geometry" />
        </mxCell>
        <mxCell id="yx6JDZAPdEywLPT-ssDb-17" style="edgeStyle=none;rounded=0;orthogonalLoop=1;jettySize=auto;html=1;endArrow=blockThin;endFill=1;" edge="1" parent="1" target="yx6JDZAPdEywLPT-ssDb-70">
          <mxGeometry relative="1" as="geometry">
            <mxPoint x="1110" y="-764" as="targetPoint" />
            <Array as="points">
              <mxPoint x="1049" y="-764.34" />
            </Array>
            <mxPoint x="920" y="-764.34" as="sourcePoint" />
          </mxGeometry>
        </mxCell>
        <mxCell id="yx6JDZAPdEywLPT-ssDb-18" value="Запрос на просмотр&amp;nbsp;&lt;div&gt;списка ТВ-каналов&lt;div&gt;(все)&lt;/div&gt;&lt;/div&gt;" style="edgeLabel;html=1;align=center;verticalAlign=middle;resizable=0;points=[];" vertex="1" connectable="0" parent="yx6JDZAPdEywLPT-ssDb-17">
          <mxGeometry x="0.0631" y="-3" relative="1" as="geometry">
            <mxPoint x="-7" y="-4" as="offset" />
          </mxGeometry>
        </mxCell>
        <mxCell id="yx6JDZAPdEywLPT-ssDb-19" style="edgeStyle=none;rounded=0;orthogonalLoop=1;jettySize=auto;html=1;endArrow=blockThin;endFill=1;" edge="1" parent="1" source="oFbbETFREsKXqKu5l48W-7" target="yx6JDZAPdEywLPT-ssDb-71">
          <mxGeometry relative="1" as="geometry">
            <mxPoint x="1520" y="-750" as="targetPoint" />
            <Array as="points">
              <mxPoint x="1259" y="-750" />
            </Array>
            <mxPoint x="1130" y="-750" as="sourcePoint" />
          </mxGeometry>
        </mxCell>
        <mxCell id="yx6JDZAPdEywLPT-ssDb-20" value="Запрос на просмотр списка ТВ-каналов&lt;div&gt;(все)&lt;/div&gt;" style="edgeLabel;html=1;align=center;verticalAlign=middle;resizable=0;points=[];" vertex="1" connectable="0" parent="yx6JDZAPdEywLPT-ssDb-19">
          <mxGeometry x="0.0631" y="-3" relative="1" as="geometry">
            <mxPoint x="-7" y="-4" as="offset" />
          </mxGeometry>
        </mxCell>
        <mxCell id="yx6JDZAPdEywLPT-ssDb-21" style="edgeStyle=none;rounded=0;orthogonalLoop=1;jettySize=auto;html=1;endArrow=none;endFill=1;startArrow=open;startFill=0;dashed=1;" edge="1" parent="1" source="yx6JDZAPdEywLPT-ssDb-70">
          <mxGeometry relative="1" as="geometry">
            <mxPoint x="1549.5" y="-646" as="targetPoint" />
            <Array as="points">
              <mxPoint x="1300" y="-646" />
            </Array>
            <mxPoint x="1150" y="-646" as="sourcePoint" />
          </mxGeometry>
        </mxCell>
        <mxCell id="yx6JDZAPdEywLPT-ssDb-22" value="Получение списка ТВ-каналов" style="edgeLabel;html=1;align=center;verticalAlign=middle;resizable=0;points=[];" vertex="1" connectable="0" parent="yx6JDZAPdEywLPT-ssDb-21">
          <mxGeometry x="0.0981" y="-1" relative="1" as="geometry">
            <mxPoint x="-8" y="-3" as="offset" />
          </mxGeometry>
        </mxCell>
        <mxCell id="yx6JDZAPdEywLPT-ssDb-23" style="edgeStyle=none;rounded=0;orthogonalLoop=1;jettySize=auto;html=1;endArrow=none;endFill=1;startArrow=open;startFill=0;dashed=1;" edge="1" parent="1" source="yx6JDZAPdEywLPT-ssDb-67">
          <mxGeometry relative="1" as="geometry">
            <mxPoint x="1126.5" y="-626" as="targetPoint" />
            <Array as="points">
              <mxPoint x="1102.84" y="-626" />
            </Array>
            <mxPoint x="940" y="-626" as="sourcePoint" />
          </mxGeometry>
        </mxCell>
        <mxCell id="yx6JDZAPdEywLPT-ssDb-24" value="Получение списка ТВ-каналов" style="edgeLabel;html=1;align=center;verticalAlign=middle;resizable=0;points=[];" vertex="1" connectable="0" parent="yx6JDZAPdEywLPT-ssDb-23">
          <mxGeometry x="0.0981" y="-1" relative="1" as="geometry">
            <mxPoint x="-8" y="-3" as="offset" />
          </mxGeometry>
        </mxCell>
        <mxCell id="yx6JDZAPdEywLPT-ssDb-27" style="edgeStyle=none;rounded=0;orthogonalLoop=1;jettySize=auto;html=1;endArrow=blockThin;endFill=1;" edge="1" parent="1" source="yx6JDZAPdEywLPT-ssDb-72" target="yx6JDZAPdEywLPT-ssDb-73">
          <mxGeometry relative="1" as="geometry">
            <mxPoint x="1520" y="-530" as="targetPoint" />
            <Array as="points">
              <mxPoint x="1261" y="-529" />
            </Array>
            <mxPoint x="1140" y="-530" as="sourcePoint" />
          </mxGeometry>
        </mxCell>
        <mxCell id="yx6JDZAPdEywLPT-ssDb-28" value="Запросить подробную инфоромацию&lt;div&gt;&amp;nbsp;о ТВ-канале&lt;/div&gt;" style="edgeLabel;html=1;align=center;verticalAlign=middle;resizable=0;points=[];" vertex="1" connectable="0" parent="yx6JDZAPdEywLPT-ssDb-27">
          <mxGeometry x="0.0631" y="-3" relative="1" as="geometry">
            <mxPoint x="-7" y="-4" as="offset" />
          </mxGeometry>
        </mxCell>
        <mxCell id="yx6JDZAPdEywLPT-ssDb-31" style="edgeStyle=none;rounded=0;orthogonalLoop=1;jettySize=auto;html=1;endArrow=none;endFill=1;startArrow=open;startFill=0;dashed=1;" edge="1" parent="1" source="yx6JDZAPdEywLPT-ssDb-67" target="yx6JDZAPdEywLPT-ssDb-72">
          <mxGeometry relative="1" as="geometry">
            <mxPoint x="1110" y="-449" as="targetPoint" />
            <Array as="points">
              <mxPoint x="1101.84" y="-449" />
            </Array>
            <mxPoint x="940" y="-450" as="sourcePoint" />
          </mxGeometry>
        </mxCell>
        <mxCell id="yx6JDZAPdEywLPT-ssDb-32" value="Получить подробную&amp;nbsp;&lt;div&gt;инфоромацию&lt;div&gt;&amp;nbsp;о ТВ-канале&lt;/div&gt;&lt;/div&gt;" style="edgeLabel;html=1;align=center;verticalAlign=middle;resizable=0;points=[];" vertex="1" connectable="0" parent="yx6JDZAPdEywLPT-ssDb-31">
          <mxGeometry x="0.0981" y="-1" relative="1" as="geometry">
            <mxPoint x="-8" y="-3" as="offset" />
          </mxGeometry>
        </mxCell>
        <mxCell id="yx6JDZAPdEywLPT-ssDb-33" style="edgeStyle=none;rounded=0;orthogonalLoop=1;jettySize=auto;html=1;endArrow=blockThin;endFill=1;" edge="1" parent="1" source="yx6JDZAPdEywLPT-ssDb-67" target="yx6JDZAPdEywLPT-ssDb-74">
          <mxGeometry relative="1" as="geometry">
            <mxPoint x="1110" y="-379" as="targetPoint" />
            <Array as="points">
              <mxPoint x="1046" y="-379.34000000000003" />
            </Array>
            <mxPoint x="940" y="-379" as="sourcePoint" />
          </mxGeometry>
        </mxCell>
        <mxCell id="yx6JDZAPdEywLPT-ssDb-34" value="Добавить в избранное" style="edgeLabel;html=1;align=center;verticalAlign=middle;resizable=0;points=[];" vertex="1" connectable="0" parent="yx6JDZAPdEywLPT-ssDb-33">
          <mxGeometry x="0.0631" y="-3" relative="1" as="geometry">
            <mxPoint x="-7" y="-4" as="offset" />
          </mxGeometry>
        </mxCell>
        <mxCell id="yx6JDZAPdEywLPT-ssDb-35" style="edgeStyle=none;rounded=0;orthogonalLoop=1;jettySize=auto;html=1;endArrow=blockThin;endFill=1;" edge="1" parent="1" source="yx6JDZAPdEywLPT-ssDb-74" target="yx6JDZAPdEywLPT-ssDb-75">
          <mxGeometry relative="1" as="geometry">
            <mxPoint x="1320" y="-340" as="targetPoint" />
            <Array as="points">
              <mxPoint x="1312.84" y="-339" />
            </Array>
            <mxPoint x="1140" y="-339" as="sourcePoint" />
          </mxGeometry>
        </mxCell>
        <mxCell id="yx6JDZAPdEywLPT-ssDb-36" value="Добавить в избранное" style="edgeLabel;html=1;align=center;verticalAlign=middle;resizable=0;points=[];" vertex="1" connectable="0" parent="yx6JDZAPdEywLPT-ssDb-35">
          <mxGeometry x="0.0631" y="-3" relative="1" as="geometry">
            <mxPoint x="-7" y="-4" as="offset" />
          </mxGeometry>
        </mxCell>
        <mxCell id="yx6JDZAPdEywLPT-ssDb-43" style="edgeStyle=none;rounded=0;orthogonalLoop=1;jettySize=auto;html=1;endArrow=blockThin;endFill=1;" edge="1" parent="1" target="yx6JDZAPdEywLPT-ssDb-76">
          <mxGeometry relative="1" as="geometry">
            <mxPoint x="1110" y="-230" as="targetPoint" />
            <Array as="points">
              <mxPoint x="1046" y="-230.00000000000006" />
            </Array>
            <mxPoint x="920" y="-229.66000000000003" as="sourcePoint" />
          </mxGeometry>
        </mxCell>
        <mxCell id="yx6JDZAPdEywLPT-ssDb-44" value="Посмотреть список&lt;div&gt;&amp;nbsp;избранных ТВ-каналов&lt;/div&gt;" style="edgeLabel;html=1;align=center;verticalAlign=middle;resizable=0;points=[];" vertex="1" connectable="0" parent="yx6JDZAPdEywLPT-ssDb-43">
          <mxGeometry x="0.0631" y="-3" relative="1" as="geometry">
            <mxPoint x="-7" y="-4" as="offset" />
          </mxGeometry>
        </mxCell>
        <mxCell id="yx6JDZAPdEywLPT-ssDb-49" style="edgeStyle=none;rounded=0;orthogonalLoop=1;jettySize=auto;html=1;endArrow=none;endFill=1;startArrow=open;startFill=0;dashed=1;" edge="1" parent="1" source="yx6JDZAPdEywLPT-ssDb-67">
          <mxGeometry relative="1" as="geometry">
            <mxPoint x="1120" y="-110" as="targetPoint" />
            <Array as="points" />
            <mxPoint x="940" y="-110" as="sourcePoint" />
          </mxGeometry>
        </mxCell>
        <mxCell id="yx6JDZAPdEywLPT-ssDb-50" value="Показать список&lt;div&gt;&amp;nbsp;избранных ТВ-каналов&lt;/div&gt;" style="edgeLabel;html=1;align=center;verticalAlign=middle;resizable=0;points=[];" vertex="1" connectable="0" parent="yx6JDZAPdEywLPT-ssDb-49">
          <mxGeometry x="0.0981" y="-1" relative="1" as="geometry">
            <mxPoint x="-8" y="-3" as="offset" />
          </mxGeometry>
        </mxCell>
        <mxCell id="yx6JDZAPdEywLPT-ssDb-51" style="edgeStyle=none;rounded=0;orthogonalLoop=1;jettySize=auto;html=1;endArrow=blockThin;endFill=1;" edge="1" parent="1" source="oFbbETFREsKXqKu5l48W-3" target="yx6JDZAPdEywLPT-ssDb-80">
          <mxGeometry relative="1" as="geometry">
            <mxPoint x="1123" y="-29.660000000000025" as="targetPoint" />
            <Array as="points">
              <mxPoint x="1043" y="-30.000000000000057" />
            </Array>
            <mxPoint x="930" y="-30" as="sourcePoint" />
          </mxGeometry>
        </mxCell>
        <mxCell id="yx6JDZAPdEywLPT-ssDb-52" value="Удалить из списка&lt;div&gt;&amp;nbsp;избранных ТВ-каналов&lt;/div&gt;" style="edgeLabel;html=1;align=center;verticalAlign=middle;resizable=0;points=[];" vertex="1" connectable="0" parent="yx6JDZAPdEywLPT-ssDb-51">
          <mxGeometry x="0.0631" y="-3" relative="1" as="geometry">
            <mxPoint x="-7" y="-4" as="offset" />
          </mxGeometry>
        </mxCell>
        <mxCell id="yx6JDZAPdEywLPT-ssDb-58" style="edgeStyle=none;rounded=0;orthogonalLoop=1;jettySize=auto;html=1;endArrow=none;endFill=1;startArrow=open;startFill=0;dashed=1;" edge="1" parent="1" source="yx6JDZAPdEywLPT-ssDb-67">
          <mxGeometry relative="1" as="geometry">
            <mxPoint x="1120" y="100" as="targetPoint" />
            <Array as="points" />
            <mxPoint x="930" y="100" as="sourcePoint" />
          </mxGeometry>
        </mxCell>
        <mxCell id="yx6JDZAPdEywLPT-ssDb-59" value="Подтверждение удаления&amp;nbsp;&lt;div&gt;из списка&lt;div&gt;&amp;nbsp;избранных ТВ-каналов&lt;/div&gt;&lt;/div&gt;" style="edgeLabel;html=1;align=center;verticalAlign=middle;resizable=0;points=[];" vertex="1" connectable="0" parent="yx6JDZAPdEywLPT-ssDb-58">
          <mxGeometry x="0.0981" y="-1" relative="1" as="geometry">
            <mxPoint x="-8" y="-3" as="offset" />
          </mxGeometry>
        </mxCell>
        <mxCell id="yx6JDZAPdEywLPT-ssDb-64" value="opt" style="shape=umlFrame;whiteSpace=wrap;html=1;pointerEvents=0;width=50;height=30;" vertex="1" parent="1">
          <mxGeometry x="830" y="-790" width="740" height="70" as="geometry" />
        </mxCell>
        <mxCell id="yx6JDZAPdEywLPT-ssDb-66" value="&lt;font style=&quot;font-size: 10px;&quot;&gt;[все]&lt;/font&gt;" style="text;html=1;align=center;verticalAlign=middle;resizable=0;points=[];autosize=1;strokeColor=none;fillColor=none;" vertex="1" parent="1">
          <mxGeometry x="852" y="-752" width="40" height="30" as="geometry" />
        </mxCell>
        <mxCell id="yx6JDZAPdEywLPT-ssDb-67" value="" style="html=1;points=[[0,0,0,0,5],[0,1,0,0,-5],[1,0,0,0,5],[1,1,0,0,-5]];perimeter=orthogonalPerimeter;outlineConnect=0;targetShapes=umlLifeline;portConstraint=eastwest;newEdgeStyle={&quot;curved&quot;:0,&quot;rounded&quot;:0};" vertex="1" parent="1">
          <mxGeometry x="915" y="-1000" width="10" height="1160" as="geometry" />
        </mxCell>
        <mxCell id="yx6JDZAPdEywLPT-ssDb-70" value="" style="html=1;points=[[0,0,0,0,5],[0,1,0,0,-5],[1,0,0,0,5],[1,1,0,0,-5]];perimeter=orthogonalPerimeter;outlineConnect=0;targetShapes=umlLifeline;portConstraint=eastwest;newEdgeStyle={&quot;curved&quot;:0,&quot;rounded&quot;:0};" vertex="1" parent="1">
          <mxGeometry x="1121" y="-777" width="10" height="157" as="geometry" />
        </mxCell>
        <mxCell id="yx6JDZAPdEywLPT-ssDb-71" value="" style="html=1;points=[[0,0,0,0,5],[0,1,0,0,-5],[1,0,0,0,5],[1,1,0,0,-5]];perimeter=orthogonalPerimeter;outlineConnect=0;targetShapes=umlLifeline;portConstraint=eastwest;newEdgeStyle={&quot;curved&quot;:0,&quot;rounded&quot;:0};" vertex="1" parent="1">
          <mxGeometry x="1544" y="-770" width="10" height="130" as="geometry" />
        </mxCell>
        <mxCell id="yx6JDZAPdEywLPT-ssDb-77" value="" style="html=1;points=[[0,0,0,0,5],[0,1,0,0,-5],[1,0,0,0,5],[1,1,0,0,-5]];perimeter=orthogonalPerimeter;outlineConnect=0;targetShapes=umlLifeline;portConstraint=eastwest;newEdgeStyle={&quot;curved&quot;:0,&quot;rounded&quot;:0};" vertex="1" parent="1">
          <mxGeometry x="1335" y="-220" width="10" height="90" as="geometry" />
        </mxCell>
        <mxCell id="yx6JDZAPdEywLPT-ssDb-29" style="edgeStyle=none;rounded=0;orthogonalLoop=1;jettySize=auto;html=1;endArrow=none;endFill=1;startArrow=open;startFill=0;dashed=1;" edge="1" parent="1" source="yx6JDZAPdEywLPT-ssDb-72" target="yx6JDZAPdEywLPT-ssDb-73">
          <mxGeometry relative="1" as="geometry">
            <mxPoint x="1540" y="-490" as="targetPoint" />
            <Array as="points">
              <mxPoint x="1293.19" y="-489" />
            </Array>
            <mxPoint x="1140" y="-490" as="sourcePoint" />
          </mxGeometry>
        </mxCell>
        <mxCell id="yx6JDZAPdEywLPT-ssDb-30" value="Получить подробную инфоромацию&lt;div&gt;&amp;nbsp;о ТВ-канале&lt;/div&gt;" style="edgeLabel;html=1;align=center;verticalAlign=middle;resizable=0;points=[];" vertex="1" connectable="0" parent="yx6JDZAPdEywLPT-ssDb-29">
          <mxGeometry x="0.0981" y="-1" relative="1" as="geometry">
            <mxPoint x="-8" y="-3" as="offset" />
          </mxGeometry>
        </mxCell>
        <mxCell id="yx6JDZAPdEywLPT-ssDb-45" style="edgeStyle=none;rounded=0;orthogonalLoop=1;jettySize=auto;html=1;endArrow=blockThin;endFill=1;" edge="1" parent="1" source="yx6JDZAPdEywLPT-ssDb-76" target="yx6JDZAPdEywLPT-ssDb-77">
          <mxGeometry relative="1" as="geometry">
            <mxPoint x="1310" y="-200" as="targetPoint" />
            <Array as="points">
              <mxPoint x="1230" y="-200" />
            </Array>
            <mxPoint x="1150" y="-200" as="sourcePoint" />
          </mxGeometry>
        </mxCell>
        <mxCell id="yx6JDZAPdEywLPT-ssDb-46" value="Посмотреть список&lt;div&gt;&amp;nbsp;избранных ТВ-каналов&lt;/div&gt;" style="edgeLabel;html=1;align=center;verticalAlign=middle;resizable=0;points=[];" vertex="1" connectable="0" parent="yx6JDZAPdEywLPT-ssDb-45">
          <mxGeometry x="0.0631" y="-3" relative="1" as="geometry">
            <mxPoint x="-5" y="-3" as="offset" />
          </mxGeometry>
        </mxCell>
      </root>
    </mxGraphModel>
  </diagram>
</mxfile>
